<svg xmlns="http://www.w3.org/2000/svg" width="16" height="20" viewBox="0 0 14 17.5">
  <path id="Path_91" data-name="Path 91" d="M13.266,2.516A1.755,1.755,0,0,0,12.024,2H5.75A1.755,1.755,0,0,0,4,3.75v14A1.748,1.748,0,0,0,5.741,19.5H16.25A1.755,1.755,0,0,0,18,17.75V7.976a1.72,1.72,0,0,0-.516-1.234ZM13.625,16H8.375a.875.875,0,1,1,0-1.75h5.25a.875.875,0,1,1,0,1.75Zm0-3.5H8.375a.875.875,0,1,1,0-1.75h5.25a.875.875,0,0,1,0,1.75Zm-1.75-5.25V3.313l4.813,4.813H12.75A.878.878,0,0,1,11.875,7.25Z" transform="translate(-4 -2)" fill="#1ba6df"/>
</svg>
