<svg xmlns="http://www.w3.org/2000/svg" width="16" height="9.412" viewBox="0 0 16 9.412">
  <path id="Path_89" data-name="Path 89" d="M15.2-10.5H.8a.792.792,0,0,0-.8.784v7.843a.792.792,0,0,0,.8.784H15.2a.792.792,0,0,0,.8-.784V-9.716A.792.792,0,0,0,15.2-10.5ZM1.2-2.265V-3.833A1.584,1.584,0,0,1,2.8-2.265Zm0-5.49V-9.324H2.8A1.584,1.584,0,0,1,1.2-7.755ZM8-3.441A2.2,2.2,0,0,1,6-5.794,2.2,2.2,0,0,1,8-8.147a2.2,2.2,0,0,1,2,2.353A2.2,2.2,0,0,1,8-3.441Zm6.8,1.176H13.2a1.584,1.584,0,0,1,1.6-1.569Zm0-5.49a1.584,1.584,0,0,1-1.6-1.569h1.6Z" transform="translate(0 10.5)" fill="#1ba6df"/>
</svg>
