<svg xmlns="http://www.w3.org/2000/svg" width="16" height="16" viewBox="0 0 16 16">
  <path id="Path_93" data-name="Path 93" d="M9,6.091A2.909,2.909,0,1,0,11.909,9,2.908,2.908,0,0,0,9,6.091Zm6.5,2.182A6.541,6.541,0,0,0,9.727,2.5V1.727a.727.727,0,1,0-1.455,0V2.5A6.541,6.541,0,0,0,2.5,8.273H1.727a.727.727,0,1,0,0,1.455H2.5A6.541,6.541,0,0,0,8.273,15.5v.771a.727.727,0,0,0,1.455,0V15.5A6.541,6.541,0,0,0,15.5,9.727h.771a.727.727,0,1,0,0-1.455ZM9,14.091A5.091,5.091,0,1,1,14.091,9,5.087,5.087,0,0,1,9,14.091Z" transform="translate(-1 -1)" fill="#1ba6df"/>
</svg>
